<svg width="88" height="63" viewBox="0 0 88 63" fill="none" xmlns="http://www.w3.org/2000/svg">
<path d="M1.54733 59.9995V51.5995H4.95533C5.44333 51.5995 5.86333 51.6875 6.21533 51.8635C6.57533 52.0315 6.85133 52.2755 7.04333 52.5955C7.23533 52.9075 7.33133 53.2795 7.33133 53.7115C7.33133 54.1755 7.19933 54.5755 6.93533 54.9115C6.67133 55.2395 6.31133 55.4675 5.85533 55.5955L5.83133 55.3675C6.22333 55.4395 6.56333 55.5795 6.85133 55.7875C7.13933 55.9875 7.36333 56.2355 7.52333 56.5315C7.69133 56.8275 7.77533 57.1595 7.77533 57.5275C7.77533 57.9035 7.71133 58.2435 7.58333 58.5475C7.45533 58.8515 7.27133 59.1115 7.03133 59.3275C6.79933 59.5435 6.51533 59.7115 6.17933 59.8315C5.85133 59.9435 5.48333 59.9995 5.07533 59.9995H1.54733ZM2.48333 59.0875H5.00333C5.36333 59.0875 5.67533 59.0275 5.93933 58.9075C6.21133 58.7795 6.41933 58.5995 6.56333 58.3675C6.71533 58.1355 6.79133 57.8675 6.79133 57.5635C6.79133 57.2755 6.71133 57.0235 6.55133 56.8075C6.39933 56.5915 6.18333 56.4235 5.90333 56.3035C5.63133 56.1835 5.31133 56.1235 4.94333 56.1235H2.48333V59.0875ZM2.48333 55.2115H4.88333C5.17133 55.2115 5.42733 55.1555 5.65133 55.0435C5.87533 54.9235 6.05133 54.7635 6.17933 54.5635C6.30733 54.3555 6.37133 54.1235 6.37133 53.8675C6.37133 53.4595 6.23133 53.1315 5.95133 52.8835C5.67933 52.6355 5.29533 52.5115 4.79933 52.5115H2.48333V55.2115ZM9.62211 59.9995L12.8381 51.5995H13.9061L17.0981 59.9995H16.0781L14.0261 54.5515C13.9701 54.3995 13.9061 54.2235 13.8341 54.0235C13.7701 53.8155 13.6981 53.6035 13.6181 53.3875C13.5461 53.1635 13.4741 52.9475 13.4021 52.7395C13.3381 52.5315 13.2781 52.3475 13.2221 52.1875H13.4621C13.3981 52.3875 13.3301 52.5915 13.2581 52.7995C13.1941 52.9995 13.1261 53.2035 13.0541 53.4115C12.9821 53.6115 12.9101 53.8115 12.8381 54.0115C12.7661 54.2115 12.6941 54.4115 12.6221 54.6115L10.5821 59.9995H9.62211ZM10.9901 57.6835L11.3381 56.7715H15.3101L15.6941 57.6835H10.9901ZM22.838 60.1195C22.238 60.1195 21.686 60.0155 21.182 59.8075C20.678 59.5915 20.242 59.2915 19.874 58.9075C19.506 58.5155 19.218 58.0555 19.01 57.5275C18.81 56.9995 18.71 56.4235 18.71 55.7995C18.71 55.1835 18.81 54.6195 19.01 54.1075C19.218 53.5875 19.51 53.1355 19.886 52.7515C20.262 52.3595 20.698 52.0595 21.194 51.8515C21.69 51.6435 22.234 51.5395 22.826 51.5395C23.218 51.5395 23.606 51.6035 23.99 51.7315C24.374 51.8515 24.726 52.0195 25.046 52.2355C25.374 52.4515 25.642 52.6995 25.85 52.9795L25.202 53.6515C25.002 53.4115 24.77 53.2035 24.506 53.0275C24.25 52.8515 23.978 52.7155 23.69 52.6195C23.402 52.5235 23.114 52.4755 22.826 52.4755C22.378 52.4755 21.958 52.5595 21.566 52.7275C21.182 52.8875 20.85 53.1155 20.57 53.4115C20.29 53.7075 20.07 54.0595 19.91 54.4675C19.758 54.8755 19.682 55.3195 19.682 55.7995C19.682 56.2955 19.758 56.7515 19.91 57.1675C20.07 57.5835 20.294 57.9435 20.582 58.2475C20.878 58.5435 21.222 58.7755 21.614 58.9435C22.014 59.1035 22.458 59.1835 22.946 59.1835C23.234 59.1835 23.522 59.1435 23.81 59.0635C24.098 58.9755 24.362 58.8555 24.602 58.7035C24.842 58.5515 25.046 58.3795 25.214 58.1875L25.694 58.9675C25.51 59.1915 25.262 59.3915 24.95 59.5675C24.646 59.7355 24.31 59.8715 23.942 59.9755C23.574 60.0715 23.206 60.1195 22.838 60.1195ZM29.1353 57.4195L29.0993 56.3035L33.8513 51.5995H35.1113L29.1353 57.4195ZM28.4273 59.9995V51.5995H29.3633V59.9995H28.4273ZM34.0553 59.9995L30.6833 55.5115L31.3673 54.9115L35.2313 59.9995H34.0553ZM43.6252 59.9995V52.5115H41.2252V51.5995H47.0572V52.5115H44.5612V59.9995H43.6252ZM52.705 60.1195C52.113 60.1195 51.565 60.0155 51.061 59.8075C50.565 59.5915 50.129 59.2915 49.753 58.9075C49.385 58.5235 49.097 58.0715 48.889 57.5515C48.689 57.0235 48.589 56.4475 48.589 55.8235C48.589 55.1995 48.689 54.6275 48.889 54.1075C49.097 53.5795 49.385 53.1235 49.753 52.7395C50.129 52.3475 50.565 52.0475 51.061 51.8395C51.565 51.6235 52.113 51.5155 52.705 51.5155C53.305 51.5155 53.853 51.6235 54.349 51.8395C54.853 52.0475 55.289 52.3475 55.657 52.7395C56.033 53.1235 56.321 53.5795 56.521 54.1075C56.729 54.6275 56.833 55.1995 56.833 55.8235C56.833 56.4395 56.729 57.0115 56.521 57.5395C56.321 58.0595 56.033 58.5155 55.657 58.9075C55.289 59.2915 54.853 59.5915 54.349 59.8075C53.853 60.0155 53.305 60.1195 52.705 60.1195ZM52.705 59.1955C53.161 59.1955 53.581 59.1155 53.965 58.9555C54.357 58.7875 54.693 58.5515 54.973 58.2475C55.253 57.9435 55.469 57.5875 55.621 57.1795C55.781 56.7635 55.861 56.3115 55.861 55.8235C55.861 55.3275 55.781 54.8755 55.621 54.4675C55.469 54.0515 55.253 53.6915 54.973 53.3875C54.693 53.0835 54.357 52.8475 53.965 52.6795C53.581 52.5115 53.161 52.4275 52.705 52.4275C52.249 52.4275 51.825 52.5115 51.433 52.6795C51.049 52.8475 50.717 53.0835 50.437 53.3875C50.157 53.6915 49.941 54.0515 49.789 54.4675C49.637 54.8755 49.561 55.3275 49.561 55.8235C49.561 56.3115 49.637 56.7635 49.789 57.1795C49.941 57.5875 50.157 57.9435 50.437 58.2475C50.717 58.5515 51.049 58.7875 51.433 58.9555C51.825 59.1155 52.249 59.1955 52.705 59.1955ZM65.4662 59.9995V52.5115H63.0662V51.5995H68.8982V52.5115H66.4022V59.9995H65.4662ZM74.5459 60.1195C73.9539 60.1195 73.4059 60.0155 72.9019 59.8075C72.4059 59.5915 71.9699 59.2915 71.5939 58.9075C71.2259 58.5235 70.9379 58.0715 70.7299 57.5515C70.5299 57.0235 70.4299 56.4475 70.4299 55.8235C70.4299 55.1995 70.5299 54.6275 70.7299 54.1075C70.9379 53.5795 71.2259 53.1235 71.5939 52.7395C71.9699 52.3475 72.4059 52.0475 72.9019 51.8395C73.4059 51.6235 73.9539 51.5155 74.5459 51.5155C75.1459 51.5155 75.6939 51.6235 76.1899 51.8395C76.6939 52.0475 77.1299 52.3475 77.4979 52.7395C77.874 53.1235 78.162 53.5795 78.3619 54.1075C78.57 54.6275 78.674 55.1995 78.674 55.8235C78.674 56.4395 78.57 57.0115 78.3619 57.5395C78.162 58.0595 77.874 58.5155 77.4979 58.9075C77.1299 59.2915 76.6939 59.5915 76.1899 59.8075C75.6939 60.0155 75.1459 60.1195 74.5459 60.1195ZM74.5459 59.1955C75.0019 59.1955 75.4219 59.1155 75.8059 58.9555C76.1979 58.7875 76.5339 58.5515 76.8139 58.2475C77.094 57.9435 77.31 57.5875 77.462 57.1795C77.6219 56.7635 77.7019 56.3115 77.7019 55.8235C77.7019 55.3275 77.6219 54.8755 77.462 54.4675C77.31 54.0515 77.094 53.6915 76.8139 53.3875C76.5339 53.0835 76.1979 52.8475 75.8059 52.6795C75.4219 52.5115 75.0019 52.4275 74.5459 52.4275C74.0899 52.4275 73.6659 52.5115 73.2739 52.6795C72.8899 52.8475 72.5579 53.0835 72.2779 53.3875C71.9979 53.6915 71.7819 54.0515 71.6299 54.4675C71.4779 54.8755 71.4019 55.3275 71.4019 55.8235C71.4019 56.3115 71.4779 56.7635 71.6299 57.1795C71.7819 57.5875 71.9979 57.9435 72.2779 58.2475C72.5579 58.5515 72.8899 58.7875 73.2739 58.9555C73.6659 59.1155 74.0899 59.1955 74.5459 59.1955ZM81.4598 59.9995V51.5995H84.7838C85.2238 51.5995 85.6198 51.7075 85.9718 51.9235C86.3238 52.1395 86.6038 52.4395 86.8118 52.8235C87.0198 53.1995 87.1238 53.6235 87.1238 54.0955C87.1238 54.5915 87.0198 55.0355 86.8118 55.4275C86.6038 55.8115 86.3238 56.1195 85.9718 56.3515C85.6198 56.5755 85.2238 56.6875 84.7838 56.6875H82.3958V59.9995H81.4598ZM82.3958 55.7755H84.8318C85.0798 55.7755 85.2998 55.7035 85.4918 55.5595C85.6918 55.4075 85.8518 55.2075 85.9718 54.9595C86.0918 54.7035 86.1518 54.4115 86.1518 54.0835C86.1518 53.7875 86.0918 53.5235 85.9718 53.2915C85.8518 53.0515 85.6918 52.8635 85.4918 52.7275C85.2998 52.5835 85.0798 52.5115 84.8318 52.5115H82.3958V55.7755Z" fill="white"/>
<path d="M52.5 14.9995L45 7.49951L37.5 14.9995" stroke="white" stroke-linecap="round" stroke-linejoin="round"/>
</svg>
